<svg xmlns="http://www.w3.org/2000/svg" x="0px" y="0px"
width="100" height="100"
viewBox="0 0 172 172"
style=" fill:#000000;"><g transform="translate(0.516,0.516) scale(0.994,0.994)"><g fill="none" fill-rule="nonzero" stroke="none" stroke-width="1" stroke-linecap="butt" stroke-linejoin="none" stroke-miterlimit="10" stroke-dasharray="" stroke-dashoffset="0" font-family="none" font-weight="none" font-size="none" text-anchor="none" style="mix-blend-mode: normal"><g stroke="#cccccc" stroke-linejoin="round"><path d="M86,102.125c-8.8924,0 -16.125,-7.2326 -16.125,-16.125c0,-8.8924 7.2326,-16.125 16.125,-16.125c8.8924,0 16.125,7.2326 16.125,16.125c0,8.8924 -7.2326,16.125 -16.125,16.125z" fill="#9b59b6"></path><path d="M86,70.95c-8.299,0 -15.05,6.751 -15.05,15.05c0,8.299 6.751,15.05 15.05,15.05c8.299,0 15.05,-6.751 15.05,-15.05c0,-8.299 -6.751,-15.05 -15.05,-15.05M86,68.8c9.4987,0 17.2,7.7013 17.2,17.2c0,9.4987 -7.7013,17.2 -17.2,17.2c-9.4987,0 -17.2,-7.7013 -17.2,-17.2c0,-9.4987 7.7013,-17.2 17.2,-17.2z" fill="#4e7ab5"></path><path d="M150.5,102.125c-8.8924,0 -16.125,-7.2326 -16.125,-16.125c0,-8.8924 7.2326,-16.125 16.125,-16.125c8.8924,0 16.125,7.2326 16.125,16.125c0,8.8924 -7.2326,16.125 -16.125,16.125z" fill="#9b59b6"></path><path d="M150.5,70.95c-8.299,0 -15.05,6.751 -15.05,15.05c0,8.299 6.751,15.05 15.05,15.05c8.299,0 15.05,-6.751 15.05,-15.05c0,-8.299 -6.751,-15.05 -15.05,-15.05M150.5,68.8c9.4987,0 17.2,7.7013 17.2,17.2c0,9.4987 -7.7013,17.2 -17.2,17.2c-9.4987,0 -17.2,-7.7013 -17.2,-17.2c0,-9.4987 7.7013,-17.2 17.2,-17.2z" fill="#4e7ab5"></path><g><path d="M21.5,102.125c-8.8924,0 -16.125,-7.2326 -16.125,-16.125c0,-8.8924 7.2326,-16.125 16.125,-16.125c8.8924,0 16.125,7.2326 16.125,16.125c0,8.8924 -7.2326,16.125 -16.125,16.125z" fill="#9b59b6"></path><path d="M21.5,70.95c-8.299,0 -15.05,6.751 -15.05,15.05c0,8.299 6.751,15.05 15.05,15.05c8.299,0 15.05,-6.751 15.05,-15.05c0,-8.299 -6.751,-15.05 -15.05,-15.05M21.5,68.8c9.4987,0 17.2,7.7013 17.2,17.2c0,9.4987 -7.7013,17.2 -17.2,17.2c-9.4987,0 -17.2,-7.7013 -17.2,-17.2c0,-9.4987 7.7013,-17.2 17.2,-17.2z" fill="#4e7ab5"></path></g></g><path d="M0,172v-172h172v172z" fill="none" stroke="none" stroke-linejoin="miter"></path><g stroke="none" stroke-linejoin="miter"><path d="M86,102.125c-8.8924,0 -16.125,-7.2326 -16.125,-16.125c0,-8.8924 7.2326,-16.125 16.125,-16.125c8.8924,0 16.125,7.2326 16.125,16.125c0,8.8924 -7.2326,16.125 -16.125,16.125z" fill="#9b59b6"></path><path d="M86,70.95c8.299,0 15.05,6.751 15.05,15.05c0,8.299 -6.751,15.05 -15.05,15.05c-8.299,0 -15.05,-6.751 -15.05,-15.05c0,-8.299 6.751,-15.05 15.05,-15.05M86,68.8c-9.4987,0 -17.2,7.7013 -17.2,17.2c0,9.4987 7.7013,17.2 17.2,17.2c9.4987,0 17.2,-7.7013 17.2,-17.2c0,-9.4987 -7.7013,-17.2 -17.2,-17.2z" fill="#4e7ab5"></path><path d="M150.5,102.125c-8.8924,0 -16.125,-7.2326 -16.125,-16.125c0,-8.8924 7.2326,-16.125 16.125,-16.125c8.8924,0 16.125,7.2326 16.125,16.125c0,8.8924 -7.2326,16.125 -16.125,16.125z" fill="#9b59b6"></path><path d="M150.5,70.95c8.299,0 15.05,6.751 15.05,15.05c0,8.299 -6.751,15.05 -15.05,15.05c-8.299,0 -15.05,-6.751 -15.05,-15.05c0,-8.299 6.751,-15.05 15.05,-15.05M150.5,68.8c-9.4987,0 -17.2,7.7013 -17.2,17.2c0,9.4987 7.7013,17.2 17.2,17.2c9.4987,0 17.2,-7.7013 17.2,-17.2c0,-9.4987 -7.7013,-17.2 -17.2,-17.2z" fill="#4e7ab5"></path><g><path d="M21.5,102.125c-8.8924,0 -16.125,-7.2326 -16.125,-16.125c0,-8.8924 7.2326,-16.125 16.125,-16.125c8.8924,0 16.125,7.2326 16.125,16.125c0,8.8924 -7.2326,16.125 -16.125,16.125z" fill="#9b59b6"></path><path d="M21.5,70.95c8.299,0 15.05,6.751 15.05,15.05c0,8.299 -6.751,15.05 -15.05,15.05c-8.299,0 -15.05,-6.751 -15.05,-15.05c0,-8.299 6.751,-15.05 15.05,-15.05M21.5,68.8c-9.4987,0 -17.2,7.7013 -17.2,17.2c0,9.4987 7.7013,17.2 17.2,17.2c9.4987,0 17.2,-7.7013 17.2,-17.2c0,-9.4987 -7.7013,-17.2 -17.2,-17.2z" fill="#4e7ab5"></path></g></g><path d="" fill="none" stroke="none" stroke-linejoin="miter"></path><path d="" fill="none" stroke="none" stroke-linejoin="miter"></path><path d="" fill="none" stroke="none" stroke-linejoin="miter"></path><path d="" fill="none" stroke="none" stroke-linejoin="miter"></path></g></g></svg>